<svg width="968" height="261" viewBox="0 0 968 261" fill="none" xmlns="http://www.w3.org/2000/svg">
<path d="M0 92.7158C0 41.5103 41.5103 0 92.7158 0H875.115C926.321 0 967.831 41.5103 967.831 92.7158V92.7158C967.831 143.921 926.321 185.432 875.115 185.432H92.7159C41.5104 185.432 0 143.921 0 92.7158V92.7158Z" fill="#FF5900"/>
<path d="M251.055 138.236H233.383V100.916H176.43V138.236H158.757V47.2405L176.43 47.189V84.5114H233.383V47.2405L251.055 47.189V138.236Z" fill="white"/>
<path d="M356.623 63.5985H290.845V84.5114H346.654V100.916H290.845V121.831H356.623V138.236H273.172V47.2375L356.623 47.192V63.5985Z" fill="white"/>
<path d="M553.715 63.5985H497.337V138.236H479.664V47.2375L553.715 47.192V63.5985Z" fill="white"/>
<path d="M657.433 138.236H639.76V73.0885L582.877 137.84L582.529 138.236H565.494V47.2405L583.167 47.189V112.345L640.049 47.6328L640.395 47.239L657.433 47.189V138.236Z" fill="white"/>
<path fill-rule="evenodd" clip-rule="evenodd" d="M763.927 47.239V138.236H746.254V112.204H714.467L697.182 137.724L696.837 138.236H675.215L695.428 109.469C683.551 104.544 675.369 93.3944 675.369 79.702C675.369 61.0786 690.46 47.192 709.395 47.192L763.927 47.239ZM710.695 63.5985C700.831 63.5985 693.062 70.081 693.062 79.702C693.062 89.3224 700.837 95.8055 710.695 95.8055H746.262V63.5985H710.695Z" fill="white"/>
<path fill-rule="evenodd" clip-rule="evenodd" d="M430.743 47.192C449.672 47.1922 464.769 61.0785 464.769 79.702C464.769 98.325 449.678 112.21 430.743 112.21H393.883V138.242H376.21V47.239L430.743 47.192ZM393.883 95.8055H429.45C439.308 95.8055 447.083 89.3224 447.083 79.702C447.083 70.0873 439.308 63.5985 429.45 63.5985H393.883V95.8055Z" fill="white"/>
<path fill-rule="evenodd" clip-rule="evenodd" d="M144.284 92.7108C144.284 63.8724 121.041 45.291 93.4331 45.291C73.1541 45.2911 54.1616 57.0644 47.3008 74.9184L46.6934 76.4983H66.5186L66.8519 75.9075C71.9749 66.8504 80.6985 61.696 93.4331 61.696C108.419 61.696 121.746 70.6331 125.528 84.5114H82.2828V100.916H125.528C121.746 114.795 108.419 123.732 93.4331 123.732C80.6985 123.732 71.9749 118.577 66.8519 109.52L66.5186 108.929H46.6994L47.3068 110.511C54.1678 128.365 73.1604 140.137 93.4391 140.137C121.047 140.137 144.284 121.562 144.284 92.7108Z" fill="white"/>
<path d="M803.551 92.7152C803.551 53.1921 835.592 21.1523 875.115 21.1523V21.1523C914.638 21.1523 946.679 53.1921 946.679 92.7152V92.7152C946.679 132.238 914.638 164.278 875.115 164.278V164.278C835.592 164.278 803.551 132.238 803.551 92.7152V92.7152Z" fill="white"/>
<path d="M884.574 73.5083C884.574 78.8892 888.936 83.2513 894.317 83.2513L926.033 83.2635V102.174H894.317C888.936 102.174 884.574 106.536 884.574 111.917V143.636H865.663V111.687C865.545 106.409 861.232 102.168 855.926 102.168L824.207 102.174V83.2635L855.926 83.2574C861.233 83.2574 865.545 79.0152 865.663 73.737V41.7949H884.574V73.5083Z" fill="#FF5900"/>
<path d="M940.809 219.807H967.767V226.386H948.786V236.226H964.215V242.631H948.786V253.403H968V259.983H940.809V219.807Z" fill="white"/>
<path d="M904.416 219.807H912.393V236.401H915.595L927.648 219.807H936.149L922.117 239.196L937.255 259.983H927.939L915.595 243.097H912.393V259.983H904.416V219.807Z" fill="white"/>
<path d="M888.289 231.102L872.102 259.983H863.193V219.807H871.17V248.687L887.357 219.807H896.266V259.983H888.289V231.102Z" fill="white"/>
<path d="M838.378 226.561H826.441V219.807H858.349V226.561H846.355V259.983H838.378V226.561Z" fill="white"/>
<path d="M796.096 219.807H823.054V226.386H804.073V236.226H819.503V242.631H804.073V253.403H823.287V259.983H796.096V219.807Z" fill="white"/>
<path d="M765.393 219.807H791.187V226.561H773.37V259.983H765.393V219.807Z" fill="white"/>
<path d="M728.771 219.807H746.88C751.305 219.807 754.566 220.952 756.662 223.242C758.797 225.532 759.864 228.715 759.864 232.791C759.864 236.828 758.797 239.972 756.662 242.224C754.566 244.436 751.305 245.543 746.88 245.543H736.748V259.983H728.771V219.807ZM751.712 233.723V231.743C751.712 230.229 751.227 228.968 750.257 227.958C749.325 226.91 747.87 226.386 745.89 226.386H736.748V238.963H745.89C747.87 238.963 749.325 238.478 750.257 237.507C751.227 236.537 751.712 235.275 751.712 233.723Z" fill="white"/>
<path d="M695.168 219.807H722.127V226.386H703.145V236.226H718.575V242.631H703.145V253.403H722.359V259.983H695.168V219.807Z" fill="white"/>
<path d="M654.852 219.807H662.829V236.11H679.015V219.807H686.992V259.983H679.015V242.864H662.829V259.983H654.852V219.807Z" fill="white"/>
<path d="M614.141 247.58H622.234C622.622 250.141 623.515 251.908 624.912 252.878C626.349 253.849 628.27 254.334 630.677 254.334C633.549 254.334 635.839 253.48 637.547 251.772C639.255 250.064 640.109 247.056 640.109 242.747V242.514H626.368V236.4H640.109C640.071 232.247 639.236 229.394 637.606 227.841C635.975 226.249 633.763 225.454 630.968 225.454C628.639 225.454 626.717 225.919 625.204 226.851C623.69 227.783 622.777 229.627 622.467 232.383H614.315C614.859 227.53 616.567 224.095 619.439 222.077C622.312 220.058 626.174 219.049 631.026 219.049C633.782 219.049 636.228 219.418 638.363 220.155C640.498 220.854 642.283 222.018 643.719 223.649C645.194 225.279 646.32 227.414 647.097 230.054C647.873 232.693 648.261 235.934 648.261 239.777C648.261 243.698 647.853 246.997 647.038 249.676C646.262 252.354 645.117 254.508 643.603 256.139C642.128 257.769 640.284 258.953 638.071 259.691C635.898 260.389 633.433 260.739 630.677 260.739C625.747 260.739 621.885 259.71 619.09 257.653C616.334 255.556 614.684 252.199 614.141 247.58Z" fill="white"/>
<path d="M567.914 219.807H595.804V226.386H575.716V235.702H585.731C590.04 235.702 593.242 236.75 595.338 238.847C597.473 240.904 598.541 243.815 598.541 247.58C598.541 251.423 597.473 254.451 595.338 256.664C593.242 258.876 590.04 259.983 585.731 259.983H567.914V219.807ZM590.564 248.628V246.765C590.564 245.251 590.059 244.029 589.05 243.097C588.08 242.127 586.508 241.641 584.334 241.641H575.716V253.752H584.334C586.43 253.752 587.983 253.287 588.992 252.355C590.04 251.423 590.564 250.181 590.564 248.628Z" fill="white"/>
<path d="M523.578 239.544C523.578 235.74 523.986 232.538 524.801 229.937C525.616 227.298 526.819 225.182 528.411 223.59C530.002 221.999 531.982 220.854 534.35 220.155C536.718 219.418 539.435 219.049 542.502 219.049C545.568 219.049 548.266 219.418 550.595 220.155C552.963 220.854 554.943 221.999 556.534 223.59C558.126 225.182 559.329 227.298 560.144 229.937C560.959 232.538 561.367 235.74 561.367 239.544C561.367 243.465 560.959 246.784 560.144 249.501C559.329 252.218 558.126 254.411 556.534 256.081C554.943 257.711 552.963 258.895 550.595 259.632C548.266 260.37 545.568 260.739 542.502 260.739C539.435 260.739 536.718 260.37 534.35 259.632C531.982 258.895 530.002 257.711 528.411 256.081C526.819 254.411 525.616 252.218 524.801 249.501C523.986 246.784 523.578 243.465 523.578 239.544ZM553.215 242.339V237.157C553.215 232.965 552.322 229.976 550.537 228.19C548.751 226.366 546.073 225.454 542.502 225.454C538.892 225.454 536.194 226.366 534.408 228.19C532.623 229.976 531.73 232.965 531.73 237.157V242.339C531.73 246.687 532.623 249.773 534.408 251.597C536.194 253.422 538.892 254.334 542.502 254.334C546.073 254.334 548.751 253.422 550.537 251.597C552.322 249.773 553.215 246.687 553.215 242.339Z" fill="white"/>
<path d="M469.926 252.646H470.566C473.051 252.646 474.662 251.443 475.399 249.036C476.137 246.629 476.505 242.495 476.505 236.634V219.807H504.861V259.983H496.884V226.561H483.842V236.634C483.842 241.176 483.628 244.96 483.201 247.988C482.813 251.016 482.134 253.422 481.163 255.208C480.232 256.955 478.97 258.197 477.379 258.934C475.787 259.633 473.827 259.983 471.498 259.983H469.926V252.646Z" fill="white"/>
<path d="M444.059 219.807H455.646L468.688 259.983H460.362L457.276 250.259H441.38L438.294 259.983H431.074L444.059 219.807ZM443.36 244.145H455.296L449.299 225.455L443.36 244.145Z" fill="white"/>
<path d="M394.484 219.807H402.461V236.11H418.648V219.807H426.625V259.983H418.648V242.864H402.461V259.983H394.484V219.807Z" fill="white"/>
<path d="M357.867 219.807H375.975C380.401 219.807 383.661 220.952 385.757 223.242C387.892 225.532 388.96 228.715 388.96 232.791C388.96 236.828 387.892 239.972 385.757 242.224C383.661 244.436 380.401 245.543 375.975 245.543H365.844V259.983H357.867V219.807ZM380.808 233.723V231.743C380.808 230.229 380.323 228.968 379.353 227.958C378.421 226.91 376.965 226.386 374.986 226.386H365.844V238.963H374.986C376.965 238.963 378.421 238.478 379.353 237.507C380.323 236.537 380.808 235.275 380.808 233.723Z" fill="white"/>
<path d="M327.88 259.983L332.538 249.677L317.807 219.807H326.075L336.439 241.059L346.046 219.807H353.616L335.449 259.983H327.88Z" fill="white"/>
<path d="M285.823 219.807H293.8V236.517H296.362L308.59 219.807H316.683L302.651 239.021L317.615 259.983H308.59L296.537 243.213H293.8V259.983H285.823V243.213H283.145L271.034 259.983H262.184L276.973 239.312L262.591 219.807H271.034L283.32 236.517H285.823V219.807Z" fill="white"/>
<path d="M243.266 241.291H261.549V248.686H243.266V241.291Z" fill="white"/>
<path d="M204.057 219.807H212.034V236.11H228.22V219.807H236.197V259.983H228.22V242.864H212.034V259.983H204.057V219.807Z" fill="white"/>
<path d="M187.929 231.103L171.743 259.984H162.834V219.808H170.811V248.688L186.998 219.808H195.906V259.984H187.929V231.103ZM168.773 207.289H175.644C175.644 208.958 175.935 210.162 176.517 210.899C177.138 211.598 178.089 211.947 179.37 211.947C180.69 211.947 181.641 211.598 182.223 210.899C182.844 210.162 183.155 208.958 183.155 207.289H190.026C190.026 210.356 189.152 212.685 187.405 214.276C185.659 215.829 182.98 216.605 179.37 216.605C175.799 216.605 173.14 215.829 171.393 214.276C169.646 212.685 168.773 210.356 168.773 207.289Z" fill="white"/>
<path d="M133.824 219.807H145.411L158.454 259.983H150.128L147.042 250.259H131.146L128.06 259.983H120.84L133.824 219.807ZM133.126 244.145H145.062L139.065 225.455L133.126 244.145Z" fill="white"/>
<path d="M81.5039 252.646H82.1444C84.6287 252.646 86.2396 251.443 86.9771 249.036C87.7147 246.629 88.0834 242.495 88.0834 236.634V219.807H116.439V259.983H108.463V226.561H95.4199V236.634C95.4199 241.176 95.2064 244.96 94.7794 247.988C94.3912 251.016 93.7119 253.422 92.7415 255.208C91.8099 256.955 90.5483 258.197 88.9568 258.934C87.3653 259.633 85.405 259.983 83.076 259.983H81.5039V252.646Z" fill="white"/>
<path d="M44.3359 219.807H52.3129V236.11H68.4997V219.807H76.4767V259.983H68.4997V242.864H52.3129V259.983H44.3359V219.807Z" fill="white"/>
<path d="M0 239.544C0 235.74 0.407582 232.538 1.22274 229.937C2.03791 227.298 3.24124 225.182 4.83275 223.59C6.42426 221.999 8.40395 220.854 10.7718 220.155C13.1397 219.418 15.8569 219.049 18.9234 219.049C21.99 219.049 24.6878 219.418 27.0168 220.155C29.3847 220.854 31.3644 221.999 32.9559 223.59C34.5474 225.182 35.7507 227.298 36.5659 229.937C37.3811 232.538 37.7886 235.74 37.7886 239.544C37.7886 243.465 37.3811 246.784 36.5659 249.501C35.7507 252.218 34.5474 254.411 32.9559 256.081C31.3644 257.711 29.3847 258.895 27.0168 259.632C24.6878 260.37 21.99 260.739 18.9234 260.739C15.8569 260.739 13.1397 260.37 10.7718 259.632C8.40395 258.895 6.42426 257.711 4.83275 256.081C3.24124 254.411 2.03791 252.218 1.22274 249.501C0.407582 246.784 0 243.465 0 239.544ZM29.637 242.339V237.157C29.637 232.965 28.7442 229.976 26.9586 228.19C25.173 226.366 22.4946 225.454 18.9234 225.454C15.3134 225.454 12.6156 226.366 10.83 228.19C9.04443 229.976 8.15163 232.965 8.15163 237.157V242.339C8.15163 246.687 9.04443 249.773 10.83 251.597C12.6156 253.422 15.3134 254.334 18.9234 254.334C22.4946 254.334 25.173 253.422 26.9586 251.597C28.7442 249.773 29.637 246.687 29.637 242.339Z" fill="white"/>
</svg>
