<svg width="600" height="600" viewBox="0 0 600 600" fill="none" xmlns="http://www.w3.org/2000/svg">
<g clip-path="url(#clip0_1147_2)">
<rect width="600" height="600" fill="url(#paint0_linear_1147_2)"/>
<ellipse cx="109.916" cy="146.347" rx="109.916" ry="146.347" transform="matrix(0.463394 -0.886152 0.83268 0.553755 341.094 324.341)" fill="#0F3F7E"/>
<ellipse cx="111.638" cy="150.341" rx="111.638" ry="150.341" transform="matrix(0.463394 -0.886152 0.83268 0.553755 326.591 327.407)" fill="url(#paint1_linear_1147_2)"/>
<path d="M391.158 237.01C403.679 213.066 427.419 199.304 456.119 196.761C484.819 194.218 518.249 202.947 549.515 223.74C580.781 244.532 603.733 273.3 615.649 302.853C627.564 332.406 628.374 362.494 615.853 386.438C603.332 410.382 579.592 424.144 550.892 426.687C522.193 429.23 488.762 420.501 457.496 399.708C426.23 378.916 403.278 350.149 391.362 320.596C379.447 291.042 378.637 260.954 391.158 237.01Z" stroke="url(#paint2_linear_1147_2)" stroke-width="7"/>
<path d="M535.949 392.489C558.949 399.489 618.949 399.489 618.949 379.489C618.949 349.489 535.949 339.489 535.949 359.489" stroke="url(#paint3_linear_1147_2)" stroke-width="16"/>
<path d="M618.949 349.894C618.949 319.894 535.949 309.894 535.949 329.894" stroke="url(#paint4_linear_1147_2)" stroke-width="16"/>
<path d="M618.949 319.894C618.949 289.894 535.949 279.894 535.949 299.894" stroke="url(#paint5_linear_1147_2)" stroke-width="16"/>
<path d="M618.949 289.894C618.949 259.894 535.949 249.894 535.949 269.894" stroke="url(#paint6_linear_1147_2)" stroke-width="16"/>
<path d="M618.949 259.894C618.949 229.894 535.949 219.894 535.949 239.894" stroke="url(#paint7_linear_1147_2)" stroke-width="16"/>
<path d="M535.949 359.49C535.949 379.49 618.949 379.49 618.949 349.491" stroke="url(#paint8_linear_1147_2)" stroke-width="16"/>
<path d="M535.949 329.49C535.949 349.49 618.949 349.49 618.949 319.491" stroke="url(#paint9_linear_1147_2)" stroke-width="16"/>
<path d="M535.949 299.49C535.949 319.49 618.949 319.49 618.949 289.491" stroke="url(#paint10_linear_1147_2)" stroke-width="16"/>
<path d="M535.949 269.49C535.949 289.49 618.949 289.49 618.949 259.491" stroke="url(#paint11_linear_1147_2)" stroke-width="16"/>
<path d="M535.949 239.49C535.949 259.49 618.949 259.49 618.949 229.491" stroke="url(#paint12_linear_1147_2)" stroke-width="16"/>
<path d="M219.589 354.032L133.801 317.742L4.80672 419.604C4.08686 420.172 3.50692 420.898 3.11145 421.726L-5.86081 440.502C-6.96067 442.804 -5.65399 445.533 -3.17135 446.12L79.6756 465.692C83.0564 466.49 86.6159 465.645 89.2766 463.412L219.589 354.032Z" fill="url(#paint13_linear_1147_2)"/>
<path d="M127.903 321.586L3.78697 420.677C2.47746 421.723 2.95714 423.819 4.59104 424.19L76.5916 440.575C79.6608 441.273 82.8797 440.486 85.2799 438.449L204.779 337.066L127.903 321.586Z" fill="url(#paint14_linear_1147_2)"/>
<path d="M385.475 392.466L299.687 356.176L170.693 458.037C169.974 458.606 169.394 459.332 168.998 460.159L160.026 478.936C158.926 481.238 160.233 483.967 162.715 484.553L245.562 504.125C248.943 504.924 252.503 504.079 255.163 501.845L385.475 392.466Z" fill="url(#paint15_linear_1147_2)"/>
<path d="M293.79 360.019L169.674 459.111C168.364 460.156 168.844 462.252 170.478 462.624L242.478 479.008C245.547 479.707 248.766 478.919 251.167 476.883L370.666 375.5L293.79 360.019Z" fill="url(#paint16_linear_1147_2)"/>
<path d="M554.753 431.641L468.965 395.352L339.971 497.213C339.251 497.782 338.671 498.508 338.276 499.335L329.303 518.112C328.203 520.413 329.51 523.143 331.993 523.729L414.84 543.301C418.22 544.1 421.78 543.254 424.441 541.021L554.753 431.641Z" fill="url(#paint17_linear_1147_2)"/>
<path d="M463.067 399.195L338.951 498.287C337.642 499.332 338.121 501.428 339.755 501.8L411.756 518.184C414.825 518.883 418.044 518.095 420.444 516.059L539.943 414.676L463.067 399.195Z" fill="url(#paint18_linear_1147_2)"/>
<path d="M733.565 472.055L647.777 435.766L518.783 537.627C518.063 538.196 517.483 538.922 517.088 539.749L508.116 558.526C507.016 560.827 508.323 563.557 510.805 564.143L593.652 583.715C597.033 584.514 600.592 583.669 603.253 581.435L733.565 472.055Z" fill="url(#paint19_linear_1147_2)"/>
<path d="M641.88 439.609L517.764 538.701C516.454 539.746 516.934 541.842 518.568 542.214L590.568 558.598C593.637 559.297 596.856 558.509 599.256 556.473L718.756 455.09L641.88 439.609Z" fill="url(#paint20_linear_1147_2)"/>
<ellipse cx="113.139" cy="202.3" rx="99.5229" ry="111.356" transform="rotate(-15.4784 113.139 202.3)" fill="#0F3F7E"/>
<ellipse cx="103.831" cy="198.955" rx="101.082" ry="114.395" transform="rotate(-15.4784 103.831 198.955)" fill="url(#paint21_linear_1147_2)"/>
<path d="M77.1909 102.748C123.202 90.0066 173.335 121.816 188.224 175.584C203.114 229.351 176.484 282.416 130.473 295.158C84.4613 307.9 34.3282 276.091 19.4387 222.323C4.54937 168.555 31.1793 115.489 77.1909 102.748Z" stroke="url(#paint22_linear_1147_2)" stroke-width="11"/>
<path d="M86.9971 282.845C63.9971 289.844 3.99707 289.844 3.99707 269.845C3.99707 239.845 86.9971 229.845 86.9971 249.845" stroke="url(#paint23_linear_1147_2)" stroke-width="16"/>
<path d="M3.99707 240.249C3.99707 210.249 86.9971 200.249 86.9971 220.249" stroke="url(#paint24_linear_1147_2)" stroke-width="16"/>
<path d="M3.99707 210.249C3.99707 180.249 86.9971 170.249 86.9971 190.249" stroke="url(#paint25_linear_1147_2)" stroke-width="16"/>
<path d="M3.99707 180.249C3.99707 150.249 86.9971 140.249 86.9971 160.249" stroke="url(#paint26_linear_1147_2)" stroke-width="16"/>
<path d="M3.99707 150.249C3.99707 120.249 86.9971 110.249 86.9971 130.249" stroke="url(#paint27_linear_1147_2)" stroke-width="16"/>
<path d="M86.9971 249.845C86.9971 269.845 3.99707 269.845 3.99707 239.846" stroke="url(#paint28_linear_1147_2)" stroke-width="16"/>
<path d="M86.9971 219.845C86.9971 239.845 3.99707 239.845 3.99707 209.846" stroke="url(#paint29_linear_1147_2)" stroke-width="16"/>
<path d="M86.9971 189.845C86.9971 209.845 3.99707 209.845 3.99707 179.846" stroke="url(#paint30_linear_1147_2)" stroke-width="16"/>
<path d="M86.9971 159.845C86.9971 179.845 3.99707 179.845 3.99707 149.846" stroke="url(#paint31_linear_1147_2)" stroke-width="16"/>
<path d="M86.9971 129.845C86.9971 149.845 3.99707 149.845 3.99707 119.846" stroke="url(#paint32_linear_1147_2)" stroke-width="16"/>
<path d="M31.1266 217.503C31.1266 203.324 29.0266 162.956 77.597 149.032C99.4207 142.775 136.396 163.312 136.396 194.114L136.396 231.485C136.396 233.066 135.649 234.552 134.381 235.496L112.206 251.991C111.105 252.81 109.716 253.141 108.364 252.905L54.8456 243.586C53.7134 243.389 52.5493 243.649 51.6092 244.31C42.9926 250.367 31.1266 244.208 31.1266 233.676V217.503Z" fill="url(#paint33_linear_1147_2)"/>
<path d="M31.0866 212.193C31.0866 198.015 34.4796 157.602 71.8257 157.6C98.512 157.599 115.851 180.448 115.852 202.358L115.852 248.339C115.852 251.212 113.815 253.669 110.994 254.217L37.0387 268.562C33.9528 269.16 31.0866 266.809 31.0866 263.665V212.193Z" fill="url(#paint34_linear_1147_2)"/>
<path d="M100.237 186.624C106.372 201.664 104.274 213.123 93.5643 222.615C88.222 227.35 76.8171 230.045 76.8171 230.045C76.8171 230.045 53.7761 213.996 50.7587 206.597C47.222 197.926 44.9714 188.988 48.6974 181.697C51.434 176.342 58.683 171.752 64.4926 169.428C73.1387 165.97 91.607 168.944 100.237 186.624Z" fill="#0F51A6"/>
<ellipse cx="25.0804" cy="29.4112" rx="25.0804" ry="29.4112" transform="matrix(0.928484 -0.371372 0.377656 0.925946 34.8799 183.5)" fill="#5C9CF2"/>
<path d="M67.6163 180.145C69.0216 182.972 68.7688 185.214 66.8057 187.189C65.8265 188.174 62.9729 189.701 62.9729 189.701C62.9729 189.701 58.9108 186.042 58.2195 184.651C57.4093 183.021 55.9839 182.141 56.6121 180.683C57.0736 179.612 59.5125 178.103 60.6161 177.578C62.2586 176.797 65.687 176.84 67.6163 180.145Z" fill="#0F51A6"/>
<ellipse cx="4.89866" cy="5.71638" rx="4.89866" ry="5.71638" transform="matrix(0.903045 -0.429546 0.44512 0.895471 53.7891 181.403)" fill="#A2C9FF"/>
<path d="M56.6573 198.26C58.0626 201.087 57.8098 203.329 55.8467 205.303C54.8675 206.288 52.0139 207.816 52.0139 207.816C52.0139 207.816 47.9518 204.157 47.2606 202.766C46.4504 201.136 45.0249 200.256 45.6532 198.798C46.1146 197.727 48.5535 196.218 49.6571 195.693C51.2996 194.912 54.728 194.955 56.6573 198.26Z" fill="#0F51A6"/>
<ellipse cx="4.89866" cy="5.71638" rx="4.89866" ry="5.71638" transform="matrix(0.903045 -0.429546 0.44512 0.895471 42.8311 199.518)" fill="#A2C9FF"/>
<path d="M88.297 188.264C89.7022 191.091 89.4494 193.333 87.4864 195.307C86.5071 196.292 83.6535 197.82 83.6535 197.82C83.6535 197.82 79.5914 194.161 78.9002 192.77C78.09 191.14 76.6645 190.26 77.2928 188.802C77.7542 187.731 80.1931 186.222 81.2968 185.697C82.9392 184.916 86.3677 184.959 88.297 188.264Z" fill="#0F51A6"/>
<ellipse cx="4.89866" cy="5.71638" rx="4.89866" ry="5.71638" transform="matrix(0.903045 -0.429546 0.44512 0.895471 74.4697 189.522)" fill="#A2C9FF"/>
<path d="M68.4503 215.556C69.8555 218.383 69.6027 220.625 67.6397 222.6C66.6605 223.585 63.8068 225.112 63.8068 225.112C63.8068 225.112 59.7448 221.453 59.0535 220.062C58.2433 218.432 56.8179 217.552 57.4461 216.094C57.9076 215.023 60.3465 213.514 61.4501 212.989C63.0926 212.208 66.521 212.251 68.4503 215.556Z" fill="#0F51A6"/>
<ellipse cx="4.89866" cy="5.71638" rx="4.89866" ry="5.71638" transform="matrix(0.903045 -0.429546 0.44512 0.895471 54.624 216.814)" fill="#A2C9FF"/>
<path d="M89.7442 209.045C91.1495 211.872 90.8967 214.114 88.9336 216.089C87.9544 217.074 85.1008 218.601 85.1008 218.601C85.1008 218.601 81.0387 214.942 80.3475 213.551C79.5373 211.922 78.1118 211.041 78.7401 209.583C79.2015 208.512 81.6404 207.003 82.744 206.478C84.3865 205.697 87.8149 205.74 89.7442 209.045Z" fill="#0F51A6"/>
<ellipse cx="4.89866" cy="5.71638" rx="4.89866" ry="5.71638" transform="matrix(0.903045 -0.429546 0.44512 0.895471 75.918 210.304)" fill="#A2C9FF"/>
<path d="M539.943 287.007C539.943 272.867 523.41 238.154 485.183 232.369C460.079 228.57 427.557 252.713 425.275 279.07C424.115 292.462 440.684 315.332 443.201 318.721C443.419 319.015 443.661 319.265 443.941 319.5L511.971 376.817C513.856 378.405 516.618 378.383 518.477 376.763L534.796 362.546C538.066 359.698 539.943 355.59 539.943 351.253V287.007Z" fill="url(#paint35_linear_1147_2)"/>
<path d="M519.403 295.784C519.403 281.644 510.274 249.504 472.047 243.719C446.942 239.92 425.261 262.358 422.979 288.714C422.026 299.728 422.522 315.932 422.815 323.072C422.906 325.296 424.245 327.261 426.266 328.192L512.31 367.855C515.623 369.382 519.403 366.966 519.403 363.318V295.784Z" fill="url(#paint36_linear_1147_2)"/>
<path d="M500.183 273.728C507.999 289.451 506.593 301.921 495.675 312.902C490.229 318.38 478.037 322.105 478.037 322.105C478.037 322.105 451.766 306.524 447.922 298.79C443.416 289.726 440.288 280.281 443.782 272.172C446.348 266.217 453.878 260.757 460.016 257.837C469.151 253.492 489.453 255.348 500.183 273.728Z" fill="#104FA1"/>
<ellipse cx="27.2446" cy="31.7924" rx="27.2446" ry="31.7924" transform="matrix(0.903045 -0.429546 0.44512 0.895471 428.9 275.118)" fill="#4B91EE"/>
<path d="M462.966 270.814C464.475 273.85 464.204 276.258 462.095 278.379C461.043 279.437 457.978 281.077 457.978 281.077C457.978 281.077 453.616 277.147 452.873 275.654C452.003 273.903 450.472 272.958 451.147 271.392C451.642 270.242 454.262 268.621 455.447 268.057C457.211 267.218 460.894 267.264 462.966 270.814Z" fill="#0E448B"/>
<ellipse cx="5.26147" cy="6.13974" rx="5.26147" ry="6.13974" transform="matrix(0.903045 -0.429546 0.44512 0.895471 448.114 272.168)" fill="#A1C9FF"/>
<path d="M453.926 291.339C455.435 294.376 455.164 296.784 453.055 298.905C452.003 299.963 448.938 301.603 448.938 301.603C448.938 301.603 444.575 297.673 443.833 296.18C442.963 294.429 441.432 293.483 442.107 291.918C442.602 290.767 445.222 289.146 446.407 288.582C448.171 287.743 451.854 287.79 453.926 291.339Z" fill="#0E448B"/>
<ellipse cx="5.26147" cy="6.13974" rx="5.26147" ry="6.13974" transform="matrix(0.903045 -0.429546 0.44512 0.895471 439.075 292.693)" fill="#A1C9FF"/>
<path d="M485.324 274.63C486.834 277.667 486.562 280.075 484.454 282.196C483.402 283.254 480.337 284.894 480.337 284.894C480.337 284.894 475.974 280.964 475.232 279.471C474.361 277.72 472.83 276.774 473.505 275.209C474.001 274.058 476.62 272.437 477.806 271.873C479.57 271.034 483.252 271.081 485.324 274.63Z" fill="#0E448B"/>
<ellipse cx="5.26147" cy="6.13974" rx="5.26147" ry="6.13974" transform="matrix(0.903045 -0.429546 0.44512 0.895471 470.474 275.984)" fill="#A1C9FF"/>
<path d="M468.895 308.516C470.405 311.553 470.133 313.961 468.025 316.082C466.973 317.14 463.908 318.78 463.908 318.78C463.908 318.78 459.545 314.85 458.803 313.356C457.933 311.606 456.402 310.66 457.076 309.094C457.572 307.944 460.191 306.323 461.377 305.759C463.141 304.92 466.823 304.967 468.895 308.516Z" fill="#0E448B"/>
<ellipse cx="5.26147" cy="6.13974" rx="5.26147" ry="6.13974" transform="matrix(0.903045 -0.429546 0.44512 0.895471 454.044 309.87)" fill="#A1C9FF"/>
<path d="M489.238 297.923C490.748 300.96 490.476 303.368 488.368 305.489C487.316 306.547 484.251 308.187 484.251 308.187C484.251 308.187 479.888 304.257 479.146 302.764C478.275 301.013 476.744 300.067 477.419 298.501C477.915 297.351 480.534 295.73 481.72 295.166C483.484 294.327 487.166 294.374 489.238 297.923Z" fill="#0E448B"/>
<ellipse cx="5.26147" cy="6.13974" rx="5.26147" ry="6.13974" transform="matrix(0.903045 -0.429546 0.44512 0.895471 474.387 299.277)" fill="#A1C9FF"/>
<path d="M428.683 285.779L116.215 215.839C114.551 215.467 112.806 215.82 111.418 216.812L106.43 220.374C105.531 221.016 105.058 222.099 105.197 223.195L109.253 255.038C109.462 256.675 110.655 258.016 112.256 258.414L421.865 335.386C423.071 335.686 424.347 335.409 425.319 334.636L430.298 330.68C431.253 329.921 431.809 328.768 431.809 327.548V289.682C431.809 287.81 430.51 286.188 428.683 285.779Z" fill="url(#paint37_linear_1147_2)"/>
<path d="M424.1 290.092L109.786 219.655C107.286 219.095 104.911 220.996 104.911 223.558V259.379C104.911 261.242 106.198 262.859 108.013 263.277L422.328 335.664C424.834 336.242 427.225 334.338 427.225 331.767V293.995C427.225 292.123 425.927 290.501 424.1 290.092Z" fill="url(#paint38_linear_1147_2)"/>
<rect x="-147.476" y="267.068" width="881.703" height="56.8772" transform="rotate(12.9318 -147.476 267.068)" fill="url(#paint39_linear_1147_2)"/>
<path d="M246 339.506V300.482C246 299.317 246.991 298.399 248.151 298.487L271.151 300.234C272.194 300.313 273 301.183 273 302.228V343.905C273 345.161 271.857 346.105 270.624 345.87L247.624 341.47C246.682 341.29 246 340.466 246 339.506Z" fill="url(#paint40_linear_1147_2)"/>
<ellipse cx="259.51" cy="301.004" rx="13.3901" ry="5.94324" transform="rotate(3.62392 259.51 301.004)" fill="url(#paint41_linear_1147_2)"/>
<path d="M254 299.728V278.89C254 277.493 255.397 276.526 256.705 277.019L263.705 279.655C264.484 279.948 265 280.694 265 281.526V300.355C265 301.064 264.63 301.738 263.974 302.005C260.765 303.313 256.667 302.677 254.565 301.023C254.175 300.716 254 300.225 254 299.728Z" fill="url(#paint42_linear_1147_2)"/>
<path d="M125.942 79.2626L8 54.5L-19 85L125.942 116.326L201.168 181.001L340.132 213.001L433.886 181.001L601 223.5L621.5 200L433.886 145.286L356 136.501L210 104.001L125.942 79.2626Z" fill="url(#paint43_linear_1147_2)"/>
<path d="M403.727 134.077C397.207 151.666 382.501 172.051 329.053 172.712C275.605 173.373 200.732 158.813 197.545 126.528C194.358 94.2425 244.032 67.6904 313.529 78.8625C383.026 90.0345 410.246 116.489 403.727 134.077Z" fill="url(#paint44_linear_1147_2)"/>
<path d="M413.982 90.1125C408.646 108.095 400.002 134.593 346.715 138.804C293.429 143.014 213.08 128.28 207.754 96.2782C202.429 64.2761 250.229 34.4825 320.315 41.0125C390.401 47.5426 419.319 72.1298 413.982 90.1125Z" fill="url(#paint45_linear_1147_2)"/>
<path d="M227.637 362.206L288.563 377.681L250.993 408.304C249.795 409.28 248.214 409.648 246.709 409.3L169.742 391.535C168.381 391.221 167.417 390.009 167.417 388.612L167.417 381.889L227.637 362.206Z" fill="url(#paint46_linear_1147_2)"/>
<path d="M204.826 353.134L285.203 369.866L250.333 399.012C248.65 400.419 246.404 400.955 244.267 400.461L169.127 383.092C167.455 382.705 167.014 380.531 168.404 379.524L204.826 353.134Z" fill="url(#paint47_linear_1147_2)"/>
<rect x="-145.018" y="221.344" width="881.703" height="67.8574" transform="rotate(12.9318 -145.018 221.344)" fill="url(#paint48_linear_1147_2)"/>
<rect x="0.543945" y="-237" width="881.703" height="293.507" transform="rotate(12.3036 0.543945 -237)" fill="url(#paint49_linear_1147_2)"/>
<rect x="-50.1523" y="-4.55286" width="881.703" height="55.5952" transform="rotate(12.3036 -50.1523 -4.55286)" fill="url(#paint50_linear_1147_2)"/>
<path d="M128.426 256.431C129.693 258.98 129.466 261.001 127.695 262.782C126.813 263.67 124.239 265.047 124.239 265.047C124.239 265.047 120.577 261.748 119.953 260.494C119.223 259.024 117.938 258.23 118.504 256.916C118.92 255.95 121.119 254.589 122.114 254.116C123.595 253.412 126.687 253.451 128.426 256.431Z" fill="#0F51A6"/>
<ellipse cx="4.41705" cy="5.15437" rx="4.41705" ry="5.15437" transform="matrix(0.903045 -0.429546 0.44512 0.895471 115.982 257.567)" fill="#A2CAFF"/>
<path d="M409.168 291.597C410.559 294.395 410.309 296.614 408.366 298.568C407.397 299.543 404.573 301.054 404.573 301.054C404.573 301.054 400.553 297.433 399.869 296.057C399.067 294.444 397.656 293.573 398.278 292.13C398.735 291.07 401.148 289.577 402.24 289.057C403.866 288.284 407.259 288.327 409.168 291.597Z" fill="#0F51A6"/>
<ellipse cx="4.84788" cy="5.65711" rx="4.84788" ry="5.65711" transform="matrix(0.903045 -0.429546 0.44512 0.895471 395.483 292.845)" fill="#A0C9FF"/>
<path d="M423.167 307.596C424.558 310.394 424.308 312.613 422.365 314.567C421.396 315.542 418.572 317.053 418.572 317.053C418.572 317.053 414.552 313.432 413.868 312.056C413.066 310.443 411.655 309.572 412.277 308.129C412.734 307.069 415.147 305.576 416.239 305.056C417.865 304.283 421.258 304.326 423.167 307.596Z" fill="#0F51A6"/>
<ellipse cx="4.84788" cy="5.65711" rx="4.84788" ry="5.65711" transform="matrix(0.903045 -0.429546 0.44512 0.895471 409.483 308.844)" fill="#A0C9FF"/>
<path d="M408.215 319.604C409.606 322.402 409.355 324.621 407.413 326.575C406.444 327.55 403.62 329.061 403.62 329.061C403.62 329.061 399.6 325.44 398.916 324.064C398.114 322.451 396.703 321.58 397.325 320.137C397.781 319.077 400.195 317.583 401.287 317.064C402.913 316.291 406.306 316.334 408.215 319.604Z" fill="#0F51A6"/>
<ellipse cx="4.84788" cy="5.65711" rx="4.84788" ry="5.65711" transform="matrix(0.903045 -0.429546 0.44512 0.895471 394.484 320.852)" fill="#A0C9FF"/>
<path d="M435.42 345.85L427.15 396.864L421.129 420.989L508.214 439.318L508.214 360.517L435.42 345.85Z" fill="url(#paint51_linear_1147_2)"/>
<path d="M491.393 496.521C470.4 514.125 462.712 522.079 458.027 503.181L460.6 516.058L479.293 530.392C497.768 530.179 504.123 527.537 505.402 526.002C506.682 524.467 527.4 526.095 529.434 505.295C512.805 501.329 504.377 499.517 491.393 496.521Z" fill="url(#paint52_linear_1147_2)"/>
<path d="M517.047 338.091C505.172 330.358 459.04 315.259 432.96 333.925C424.422 340.036 423.347 352.486 419.372 362.863C417.477 367.811 410.676 369.19 410.676 378.358C410.676 387.325 410.676 400.327 410.676 402.444L410.676 402.57C410.676 402.57 420.015 403.587 419.372 397.098C418.729 390.61 434.805 380.544 434.805 380.544V363.6C434.805 359.119 438.956 355.792 443.329 356.768L478.552 364.625C483.212 365.665 486.492 369.845 486.522 374.62C486.598 386.773 487.352 408.825 491.669 415.369C497.731 424.559 510.085 423.934 510.085 423.934V401.739C510.085 398.828 511.494 396.096 513.866 394.407L536.412 378.358L540.342 379.254L539.706 374.954C539.706 374.954 528.921 345.824 517.047 338.091Z" fill="url(#paint53_linear_1147_2)"/>
<path d="M419.802 405.008C419.802 374.113 436.529 357.878 446.123 357.148C457.734 359.747 465.049 361.417 479.875 364.657C467.488 366.78 456.844 396.325 456.568 405.008C456.568 426.011 455.75 481.355 456.568 489.185C457.633 499.387 451.21 531.016 488.372 531.016C488.372 536.153 483.636 532.532 483.636 540.801C419.801 528.869 419.802 528.941 419.802 470.732V405.008Z" fill="url(#paint54_linear_1147_2)"/>
<path d="M456.176 404.816C456.176 376.122 469.685 366.502 479.296 364.693C480.44 364.478 481.431 365.403 481.431 366.568L481.431 378.326C467.601 383.217 467.878 396.132 467.601 404.816V488.762C467.601 500.33 467.601 537.758 496.487 527.687C505.462 524.558 506.972 522.417 529.374 505.38V518.372C510.631 533.023 508.962 535.872 496.487 539.244C456.176 550.141 456.419 500.662 456.176 489.611L456.176 404.816Z" fill="url(#paint55_linear_1147_2)"/>
<path d="M494.172 508.407C491.121 508.396 488.076 507.545 488.076 505.882C488.076 504.589 488.076 502.942 488.076 502.942C488.076 502.942 492.368 500.147 493.868 500.153C495.627 500.159 498.327 500.78 499.314 501.954C499.314 503.987 499.314 504.146 499.314 505.336C499.314 506.291 497.862 508.173 494.172 508.407Z" fill="#0C376E"/>
<ellipse cx="3.05577" cy="5.63538" rx="3.05577" ry="5.63538" transform="matrix(0.0622217 0.998062 -0.996835 0.0794973 499.117 499.023)" fill="#3877CA"/>
<path d="M512.253 512.246C509.202 512.234 506.157 511.383 506.157 509.72C506.157 508.427 506.157 506.78 506.157 506.78C506.157 506.78 510.449 503.985 511.949 503.991C513.708 503.998 516.408 504.618 517.395 505.793C517.395 507.825 517.395 507.985 517.395 509.174C517.395 510.13 515.943 512.011 512.253 512.246Z" fill="#0C376E"/>
<ellipse cx="3.05577" cy="5.63538" rx="3.05577" ry="5.63538" transform="matrix(0.0622217 0.998062 -0.996835 0.0794973 517.198 502.862)" fill="#3877CA"/>
<path d="M-25.0934 377.576C-46.0868 395.18 -53.7747 403.134 -58.459 384.236L-55.8866 397.113L-37.1936 411.446C-18.7181 411.233 -12.363 408.592 -11.0839 407.057C-9.8048 405.522 10.9135 407.149 12.9478 386.35C-3.68177 382.383 -12.1091 380.572 -25.0934 377.576Z" fill="url(#paint56_linear_1147_2)"/>
<path d="M1.56023 219.146C-10.3143 211.412 -56.446 196.314 -82.5263 214.98C-91.0643 221.091 -92.1394 233.541 -96.1139 243.918C-98.0091 248.865 -104.811 250.244 -104.811 259.413C-104.81 268.38 -104.811 281.382 -104.811 283.499L-104.811 283.625C-104.811 283.625 -95.4714 284.642 -96.1143 278.153C-96.7571 271.665 -80.6814 261.599 -80.6814 261.599V244.655C-80.6814 240.174 -76.5304 236.847 -72.1574 237.823L-36.9345 245.68C-32.2742 246.719 -28.9946 250.9 -28.9646 255.675C-28.8882 267.827 -28.1342 289.88 -23.8171 296.424C-17.7552 305.613 -5.40125 304.988 -5.40125 304.988V282.794C-5.40125 279.882 -3.99261 277.15 -1.62051 275.462L20.9256 259.413L24.8555 260.308L24.2199 256.009C24.2199 256.009 13.4348 226.879 1.56023 219.146Z" fill="url(#paint57_linear_1147_2)"/>
<path d="M-60.3105 285.871C-60.3105 257.176 -46.8013 247.557 -37.1903 245.748C-36.0461 245.533 -35.0557 246.458 -35.0557 247.622L-35.0557 259.38C-48.8853 264.271 -48.6088 277.187 -48.8853 285.871V369.817C-48.8853 381.384 -48.8853 418.813 -19.9989 408.742C-11.0241 405.613 -9.51408 403.471 12.8881 386.434V399.427C-5.8553 414.078 -7.52419 416.927 -19.9989 420.299C-60.3105 431.196 -60.0676 381.717 -60.3105 370.665L-60.3105 285.871Z" fill="url(#paint58_linear_1147_2)"/>
<path d="M-4.23366 393.3C-7.28471 393.289 -10.3294 392.438 -10.3294 390.774C-10.3294 389.481 -10.3294 387.834 -10.3294 387.834C-10.3294 387.834 -6.03771 385.04 -4.53693 385.046C-2.77788 385.052 -0.0784119 385.673 0.908635 386.847C0.909089 388.88 0.908897 389.039 0.908583 390.229C0.90833 391.184 -0.542904 393.066 -4.23366 393.3Z" fill="#0C376E"/>
<ellipse cx="3.05577" cy="5.63538" rx="3.05577" ry="5.63538" transform="matrix(0.0622217 0.998062 -0.996835 0.0794973 0.711914 383.916)" fill="#3877CA"/>
<path d="M116.426 240.432C117.693 242.981 117.466 245.003 115.695 246.784C114.813 247.672 112.239 249.049 112.239 249.049C112.239 249.049 108.577 245.75 107.953 244.496C107.223 243.026 105.938 242.232 106.504 240.918C106.92 239.952 109.119 238.591 110.114 238.118C111.595 237.413 114.687 237.453 116.426 240.432Z" fill="#0F51A6"/>
<ellipse cx="4.41705" cy="5.15437" rx="4.41705" ry="5.15437" transform="matrix(0.903045 -0.429546 0.44512 0.895471 103.982 241.569)" fill="#A2CAFF"/>
<path d="M129.425 227.434C130.692 229.984 130.465 232.005 128.694 233.786C127.812 234.674 125.238 236.051 125.238 236.051C125.238 236.051 121.576 232.752 120.952 231.498C120.222 230.028 118.937 229.234 119.503 227.92C119.919 226.954 122.118 225.593 123.113 225.12C124.594 224.415 127.686 224.455 129.425 227.434Z" fill="#0F51A6"/>
<ellipse cx="4.41705" cy="5.15437" rx="4.41705" ry="5.15437" transform="matrix(0.903045 -0.429546 0.44512 0.895471 116.981 228.571)" fill="#A2CAFF"/>
<path d="M112.336 110.285L-0.644959 85.5624C-3.1396 85.0165 -5.5 86.9162 -5.5 89.4699V116.33C-5.5 118.187 -4.22154 119.8 -2.41329 120.224L120.709 149.098C124.131 149.901 127.263 151.636 129.757 154.112L192.266 216.164C198.085 221.939 205.401 225.975 213.391 227.815L325.744 253.687C335.08 255.837 344.863 254.881 353.606 250.964L428.023 217.626C431.826 215.923 436.083 215.517 440.14 216.471L599.084 253.844C601.595 254.435 604 252.53 604 249.95V221.192C604 219.325 602.708 217.706 600.888 217.292L447.831 182.459C438.615 180.362 429.089 180.002 419.742 181.398L357.775 190.651C346.113 192.393 334.229 191.971 322.72 189.407L218.157 166.11C206.923 163.607 196.23 159.105 186.589 152.817L137.608 120.871C129.895 115.84 121.332 112.253 112.336 110.285Z" fill="url(#paint59_linear_1147_2)"/>
<path d="M-7.37988 89.3517L109.737 115.273C119.364 117.404 128.484 121.388 136.589 127.002L182.286 158.655C192.644 165.83 204.313 170.895 216.628 173.563L320.733 196.111C332.27 198.61 344.169 198.959 355.833 197.142L419.941 187.154C429.562 185.655 439.382 186.019 448.867 188.227L605.101 224.586" stroke="url(#paint60_linear_1147_2)" stroke-width="3"/>
<path d="M605.307 249.606L439.771 210.117C435.815 209.174 431.66 209.524 427.918 211.118L349.383 244.562C340.742 248.242 331.15 249.06 322.01 246.897L216.049 221.818C208.267 219.976 201.134 216.049 195.417 210.457L132.483 148.902C129.996 146.469 126.888 144.766 123.5 143.979L-10.0684 112.926" stroke="url(#paint61_linear_1147_2)" stroke-width="3"/>
<path d="M281.772 225.384V266.598C281.772 268.654 280.868 270.606 279.3 271.936L265.084 283.997C263.214 285.583 260.47 285.579 258.604 283.988L247.213 274.272C246.579 273.731 246.129 273.006 245.928 272.197L236.115 232.87C235.725 231.309 236.309 229.666 237.597 228.701L251.015 218.646C252.838 217.281 255.156 216.757 257.389 217.206L278.56 221.463C280.428 221.838 281.772 223.479 281.772 225.384Z" fill="url(#paint62_linear_1147_2)"/>
<path d="M235.934 276.544V232.003C235.934 229.5 238.207 227.612 240.668 228.071L262.39 232.126C264.284 232.48 265.657 234.132 265.657 236.058V281.179C265.657 283.724 263.311 285.622 260.822 285.091L239.099 280.456C237.253 280.063 235.934 278.432 235.934 276.544Z" fill="url(#paint63_linear_1147_2)"/>
<path d="M269.147 205.341V219.441C269.147 220.322 268.76 221.159 268.088 221.729L263.599 225.537C262.478 226.488 260.831 226.486 259.712 225.531L256.518 222.808C256.043 222.402 255.706 221.858 255.554 221.252L252.222 207.894C251.929 206.723 252.367 205.491 253.333 204.767L257.586 201.58C258.27 201.068 259.139 200.872 259.976 201.04L266.739 202.4C268.14 202.681 269.147 203.912 269.147 205.341Z" fill="url(#paint64_linear_1147_2)"/>
<path d="M251.913 222.949V207.201C251.913 205.949 253.05 205.005 254.28 205.235L261.455 206.574C262.402 206.751 263.088 207.577 263.088 208.54V224.48C263.088 225.752 261.916 226.701 260.671 226.436L253.496 224.905C252.573 224.708 251.913 223.893 251.913 222.949Z" fill="#85B7FA"/>
<path d="M251.913 222.949V207.201C251.913 205.949 253.05 205.005 254.28 205.235L261.455 206.574C262.402 206.751 263.088 207.577 263.088 208.54V224.48C263.088 225.752 261.916 226.701 260.671 226.436L253.496 224.905C252.573 224.708 251.913 223.893 251.913 222.949Z" fill="#85B7FA"/>
</g>
<defs>
<linearGradient id="paint0_linear_1147_2" x1="300" y1="0" x2="300" y2="600" gradientUnits="userSpaceOnUse">
<stop stop-color="#041327"/>
<stop offset="1" stop-color="#001D60"/>
</linearGradient>
<linearGradient id="paint1_linear_1147_2" x1="13.1556" y1="88.6679" x2="228.478" y2="169.89" gradientUnits="userSpaceOnUse">
<stop stop-color="#0149A8"/>
<stop offset="0.52799" stop-color="#06326D"/>
<stop offset="1" stop-color="#03316D"/>
</linearGradient>
<linearGradient id="paint2_linear_1147_2" x1="388.244" y1="235.072" x2="632.218" y2="362.653" gradientUnits="userSpaceOnUse">
<stop stop-color="#004FBA"/>
<stop offset="0.716688" stop-color="#0A5AC5"/>
<stop offset="1" stop-color="#074496"/>
</linearGradient>
<linearGradient id="paint3_linear_1147_2" x1="618.949" y1="344.489" x2="535.949" y2="367.489" gradientUnits="userSpaceOnUse">
<stop stop-color="#003C8B"/>
<stop offset="1" stop-color="#3A82E0"/>
</linearGradient>
<linearGradient id="paint4_linear_1147_2" x1="621.429" y1="331.053" x2="535.949" y2="321.893" gradientUnits="userSpaceOnUse">
<stop stop-color="#1C70DF"/>
<stop offset="0.509615" stop-color="#0046A2"/>
<stop offset="1" stop-color="#3A82E0"/>
</linearGradient>
<linearGradient id="paint5_linear_1147_2" x1="621.429" y1="301.053" x2="535.949" y2="291.893" gradientUnits="userSpaceOnUse">
<stop stop-color="#1C70DF"/>
<stop offset="0.509615" stop-color="#0046A2"/>
<stop offset="1" stop-color="#3A82E0"/>
</linearGradient>
<linearGradient id="paint6_linear_1147_2" x1="621.429" y1="271.053" x2="535.949" y2="261.893" gradientUnits="userSpaceOnUse">
<stop stop-color="#1C70DF"/>
<stop offset="0.509615" stop-color="#0046A2"/>
<stop offset="1" stop-color="#3A82E0"/>
</linearGradient>
<linearGradient id="paint7_linear_1147_2" x1="621.429" y1="241.053" x2="535.949" y2="231.893" gradientUnits="userSpaceOnUse">
<stop stop-color="#1C70DF"/>
<stop offset="0.509615" stop-color="#0046A2"/>
<stop offset="1" stop-color="#3A82E0"/>
</linearGradient>
<linearGradient id="paint8_linear_1147_2" x1="613.01" y1="349.491" x2="551.426" y2="369.331" gradientUnits="userSpaceOnUse">
<stop stop-color="#1C70DF"/>
<stop offset="0.418456" stop-color="#70ADFF"/>
<stop offset="1" stop-color="#3A82E0"/>
</linearGradient>
<linearGradient id="paint9_linear_1147_2" x1="613.01" y1="319.491" x2="551.426" y2="339.331" gradientUnits="userSpaceOnUse">
<stop stop-color="#1C70DF"/>
<stop offset="0.418456" stop-color="#70ADFF"/>
<stop offset="1" stop-color="#3A82E0"/>
</linearGradient>
<linearGradient id="paint10_linear_1147_2" x1="613.01" y1="289.491" x2="551.426" y2="309.331" gradientUnits="userSpaceOnUse">
<stop stop-color="#1C70DF"/>
<stop offset="0.418456" stop-color="#70ADFF"/>
<stop offset="1" stop-color="#3A82E0"/>
</linearGradient>
<linearGradient id="paint11_linear_1147_2" x1="613.01" y1="259.491" x2="551.426" y2="279.331" gradientUnits="userSpaceOnUse">
<stop stop-color="#1C70DF"/>
<stop offset="0.418456" stop-color="#70ADFF"/>
<stop offset="1" stop-color="#3A82E0"/>
</linearGradient>
<linearGradient id="paint12_linear_1147_2" x1="613.01" y1="229.491" x2="551.426" y2="249.331" gradientUnits="userSpaceOnUse">
<stop stop-color="#1C70DF"/>
<stop offset="0.418456" stop-color="#70ADFF"/>
<stop offset="1" stop-color="#3A82E0"/>
</linearGradient>
<linearGradient id="paint13_linear_1147_2" x1="111.294" y1="468.036" x2="-6.50483" y2="487.623" gradientUnits="userSpaceOnUse">
<stop offset="0.166263" stop-color="#013065"/>
<stop offset="0.251656" stop-color="#246BBD"/>
<stop offset="1" stop-color="#3470B4"/>
</linearGradient>
<linearGradient id="paint14_linear_1147_2" x1="69.191" y1="378.662" x2="59.0053" y2="435.478" gradientUnits="userSpaceOnUse">
<stop stop-color="#0E407B"/>
<stop offset="1" stop-color="#1F61AD"/>
</linearGradient>
<linearGradient id="paint15_linear_1147_2" x1="277.181" y1="506.469" x2="159.382" y2="526.057" gradientUnits="userSpaceOnUse">
<stop offset="0.166263" stop-color="#013065"/>
<stop offset="0.251656" stop-color="#246BBD"/>
<stop offset="1" stop-color="#3470B4"/>
</linearGradient>
<linearGradient id="paint16_linear_1147_2" x1="235.078" y1="417.095" x2="224.892" y2="473.912" gradientUnits="userSpaceOnUse">
<stop stop-color="#0E407B"/>
<stop offset="1" stop-color="#1F61AD"/>
</linearGradient>
<linearGradient id="paint17_linear_1147_2" x1="446.458" y1="545.645" x2="328.659" y2="565.233" gradientUnits="userSpaceOnUse">
<stop offset="0.166263" stop-color="#013065"/>
<stop offset="0.251656" stop-color="#246BBD"/>
<stop offset="1" stop-color="#3470B4"/>
</linearGradient>
<linearGradient id="paint18_linear_1147_2" x1="404.355" y1="456.271" x2="394.169" y2="513.088" gradientUnits="userSpaceOnUse">
<stop stop-color="#0E407B"/>
<stop offset="1" stop-color="#1F61AD"/>
</linearGradient>
<linearGradient id="paint19_linear_1147_2" x1="625.27" y1="586.059" x2="507.472" y2="605.647" gradientUnits="userSpaceOnUse">
<stop offset="0.166263" stop-color="#013065"/>
<stop offset="0.251656" stop-color="#246BBD"/>
<stop offset="1" stop-color="#3470B4"/>
</linearGradient>
<linearGradient id="paint20_linear_1147_2" x1="583.168" y1="496.685" x2="572.982" y2="553.502" gradientUnits="userSpaceOnUse">
<stop stop-color="#0E407B"/>
<stop offset="1" stop-color="#1F61AD"/>
</linearGradient>
<linearGradient id="paint21_linear_1147_2" x1="14.6603" y1="152.028" x2="200.017" y2="235.229" gradientUnits="userSpaceOnUse">
<stop stop-color="#0B3C7D"/>
<stop offset="0.52799" stop-color="#06326D"/>
<stop offset="1" stop-color="#0652B7"/>
</linearGradient>
<linearGradient id="paint22_linear_1147_2" x1="75.7227" y1="97.4474" x2="131.94" y2="300.459" gradientUnits="userSpaceOnUse">
<stop stop-color="#004FBA"/>
<stop offset="0.716688" stop-color="#2C7BE5"/>
<stop offset="1" stop-color="#074496"/>
</linearGradient>
<linearGradient id="paint23_linear_1147_2" x1="3.99707" y1="234.844" x2="86.9971" y2="257.844" gradientUnits="userSpaceOnUse">
<stop stop-color="#003C8B"/>
<stop offset="1" stop-color="#3A82E0"/>
</linearGradient>
<linearGradient id="paint24_linear_1147_2" x1="1.51708" y1="221.408" x2="86.9971" y2="212.248" gradientUnits="userSpaceOnUse">
<stop stop-color="#1C70DF"/>
<stop offset="0.509615" stop-color="#0046A2"/>
<stop offset="1" stop-color="#3A82E0"/>
</linearGradient>
<linearGradient id="paint25_linear_1147_2" x1="1.51708" y1="191.408" x2="86.9971" y2="182.248" gradientUnits="userSpaceOnUse">
<stop stop-color="#1C70DF"/>
<stop offset="0.509615" stop-color="#0046A2"/>
<stop offset="1" stop-color="#3A82E0"/>
</linearGradient>
<linearGradient id="paint26_linear_1147_2" x1="1.51708" y1="161.408" x2="86.9971" y2="152.248" gradientUnits="userSpaceOnUse">
<stop stop-color="#1C70DF"/>
<stop offset="0.509615" stop-color="#0046A2"/>
<stop offset="1" stop-color="#3A82E0"/>
</linearGradient>
<linearGradient id="paint27_linear_1147_2" x1="1.51708" y1="131.408" x2="86.9971" y2="122.248" gradientUnits="userSpaceOnUse">
<stop stop-color="#1C70DF"/>
<stop offset="0.509615" stop-color="#0046A2"/>
<stop offset="1" stop-color="#3A82E0"/>
</linearGradient>
<linearGradient id="paint28_linear_1147_2" x1="9.93647" y1="239.846" x2="71.5205" y2="259.686" gradientUnits="userSpaceOnUse">
<stop stop-color="#1C70DF"/>
<stop offset="0.418456" stop-color="#70ADFF"/>
<stop offset="1" stop-color="#3A82E0"/>
</linearGradient>
<linearGradient id="paint29_linear_1147_2" x1="9.93647" y1="209.846" x2="71.5205" y2="229.686" gradientUnits="userSpaceOnUse">
<stop stop-color="#1C70DF"/>
<stop offset="0.418456" stop-color="#70ADFF"/>
<stop offset="1" stop-color="#3A82E0"/>
</linearGradient>
<linearGradient id="paint30_linear_1147_2" x1="9.93647" y1="179.846" x2="71.5205" y2="199.686" gradientUnits="userSpaceOnUse">
<stop stop-color="#1C70DF"/>
<stop offset="0.418456" stop-color="#70ADFF"/>
<stop offset="1" stop-color="#3A82E0"/>
</linearGradient>
<linearGradient id="paint31_linear_1147_2" x1="9.93647" y1="149.846" x2="71.5205" y2="169.686" gradientUnits="userSpaceOnUse">
<stop stop-color="#1C70DF"/>
<stop offset="0.418456" stop-color="#70ADFF"/>
<stop offset="1" stop-color="#3A82E0"/>
</linearGradient>
<linearGradient id="paint32_linear_1147_2" x1="9.93647" y1="119.846" x2="71.5205" y2="139.686" gradientUnits="userSpaceOnUse">
<stop stop-color="#1C70DF"/>
<stop offset="0.418456" stop-color="#70ADFF"/>
<stop offset="1" stop-color="#3A82E0"/>
</linearGradient>
<linearGradient id="paint33_linear_1147_2" x1="69.1619" y1="151.774" x2="136.652" y2="174.995" gradientUnits="userSpaceOnUse">
<stop stop-color="#135AB8"/>
<stop offset="1" stop-color="#1051A6"/>
</linearGradient>
<linearGradient id="paint34_linear_1147_2" x1="73.4691" y1="159.598" x2="73.996" y2="269.683" gradientUnits="userSpaceOnUse">
<stop stop-color="#5DA3FF"/>
<stop offset="0.619905" stop-color="#6DAAF9"/>
<stop offset="1" stop-color="#4791F3"/>
</linearGradient>
<linearGradient id="paint35_linear_1147_2" x1="462.077" y1="242.444" x2="479.48" y2="294.299" gradientUnits="userSpaceOnUse">
<stop stop-color="#07479A"/>
<stop offset="1" stop-color="#04377B"/>
</linearGradient>
<linearGradient id="paint36_linear_1147_2" x1="470.912" y1="245.575" x2="470.784" y2="347.595" gradientUnits="userSpaceOnUse">
<stop stop-color="#519CFF"/>
<stop offset="0.619905" stop-color="#68A6F8"/>
<stop offset="1" stop-color="#3082EE"/>
</linearGradient>
<linearGradient id="paint37_linear_1147_2" x1="478.143" y1="316.594" x2="143.62" y2="253.014" gradientUnits="userSpaceOnUse">
<stop stop-color="#003376"/>
<stop offset="1" stop-color="#2263B9"/>
</linearGradient>
<linearGradient id="paint38_linear_1147_2" x1="104.911" y1="243.242" x2="445.85" y2="307.734" gradientUnits="userSpaceOnUse">
<stop stop-color="#78B3FF"/>
<stop offset="0.454659" stop-color="#66A7FB"/>
<stop offset="0.475429" stop-color="#3285F0"/>
<stop offset="0.603124" stop-color="#5FA3FA"/>
<stop offset="1" stop-color="#5AA1FE"/>
</linearGradient>
<linearGradient id="paint39_linear_1147_2" x1="240.071" y1="269.119" x2="240.031" y2="324.875" gradientUnits="userSpaceOnUse">
<stop stop-color="#0B2B55"/>
<stop offset="0.679131" stop-color="#254E86"/>
<stop offset="0.791805" stop-color="#366DAC"/>
<stop offset="0.852786" stop-color="#234C7C"/>
</linearGradient>
<linearGradient id="paint40_linear_1147_2" x1="273" y1="322.324" x2="246" y2="322.324" gradientUnits="userSpaceOnUse">
<stop stop-color="#4093FF"/>
<stop offset="0.243519" stop-color="#0E5DC3"/>
<stop offset="0.765413" stop-color="#8CBDFF"/>
</linearGradient>
<linearGradient id="paint41_linear_1147_2" x1="246.047" y1="301.352" x2="272.963" y2="299.424" gradientUnits="userSpaceOnUse">
<stop stop-color="#3179D7"/>
<stop offset="1" stop-color="#063C81"/>
</linearGradient>
<linearGradient id="paint42_linear_1147_2" x1="265" y1="298" x2="254" y2="298" gradientUnits="userSpaceOnUse">
<stop stop-color="#4093FF"/>
<stop offset="0.243519" stop-color="#0E5DC3"/>
<stop offset="0.765413" stop-color="#8CBDFF"/>
</linearGradient>
<linearGradient id="paint43_linear_1147_2" x1="412.5" y1="378" x2="57.0001" y2="43.4998" gradientUnits="userSpaceOnUse">
<stop offset="0.124408" stop-color="#002E69"/>
<stop offset="0.221169" stop-color="#0A3B7C"/>
<stop offset="0.34476" stop-color="#00285D"/>
<stop offset="0.762149" stop-color="#002E69"/>
<stop offset="0.822361" stop-color="#104A97"/>
</linearGradient>
<linearGradient id="paint44_linear_1147_2" x1="225.592" y1="110.509" x2="308.359" y2="182.962" gradientUnits="userSpaceOnUse">
<stop stop-color="#7EABE4"/>
<stop offset="0.46764" stop-color="#519CFE"/>
<stop offset="1" stop-color="#1051A7"/>
</linearGradient>
<linearGradient id="paint45_linear_1147_2" x1="225.826" y1="79.3605" x2="313.223" y2="146.155" gradientUnits="userSpaceOnUse">
<stop stop-color="#497FC4"/>
<stop offset="1" stop-color="#042C61"/>
</linearGradient>
<linearGradient id="paint46_linear_1147_2" x1="186.32" y1="404.866" x2="251.904" y2="403.47" gradientUnits="userSpaceOnUse">
<stop stop-color="#6EACFF"/>
<stop offset="0.240787" stop-color="#97C3FF"/>
<stop offset="0.818211" stop-color="#B4D4FF"/>
<stop offset="1" stop-color="#003B88"/>
</linearGradient>
<linearGradient id="paint47_linear_1147_2" x1="219.131" y1="392.203" x2="226.239" y2="364.118" gradientUnits="userSpaceOnUse">
<stop stop-color="#3381EA"/>
<stop offset="1" stop-color="#265A9E"/>
</linearGradient>
<linearGradient id="paint48_linear_1147_2" x1="243.67" y1="219.884" x2="243.541" y2="289.089" gradientUnits="userSpaceOnUse">
<stop offset="0.234994" stop-color="#FFC66B"/>
<stop offset="0.333238" stop-color="#FFC165"/>
<stop offset="0.443226" stop-color="#C37200"/>
<stop offset="0.504344" stop-color="#D07A00"/>
<stop offset="0.875014" stop-color="#EB9A29"/>
<stop offset="1" stop-color="#9A5A00"/>
</linearGradient>
<linearGradient id="paint49_linear_1147_2" x1="440.899" y1="-195.932" x2="441.216" y2="56.5067" gradientUnits="userSpaceOnUse">
<stop stop-color="#E0EDF6"/>
<stop offset="1" stop-color="#BFDDF0"/>
</linearGradient>
<linearGradient id="paint50_linear_1147_2" x1="623.046" y1="21.6484" x2="-5.34748" y2="15.5255" gradientUnits="userSpaceOnUse">
<stop stop-color="#FF5500"/>
<stop offset="1" stop-color="#FF5500"/>
</linearGradient>
<linearGradient id="paint51_linear_1147_2" x1="473.012" y1="379.929" x2="484.676" y2="432.472" gradientUnits="userSpaceOnUse">
<stop stop-color="#2F0E03"/>
<stop offset="1" stop-color="#B1663E" stop-opacity="0"/>
</linearGradient>
<linearGradient id="paint52_linear_1147_2" x1="514.064" y1="489.266" x2="514.064" y2="527.486" gradientUnits="userSpaceOnUse">
<stop stop-color="#1D467D"/>
<stop offset="1" stop-color="#1052AA"/>
</linearGradient>
<linearGradient id="paint53_linear_1147_2" x1="493.646" y1="329.554" x2="475.509" y2="415.345" gradientUnits="userSpaceOnUse">
<stop stop-color="#FEC66A"/>
<stop offset="0.294782" stop-color="#FEC66B"/>
<stop offset="0.702079" stop-color="#BE6A03"/>
<stop offset="1" stop-color="#A35200"/>
</linearGradient>
<linearGradient id="paint54_linear_1147_2" x1="468.299" y1="361.468" x2="433.716" y2="531.501" gradientUnits="userSpaceOnUse">
<stop offset="0.00961538" stop-color="#1160CC"/>
<stop offset="0.0625" stop-color="#4F95F3"/>
<stop offset="0.215479" stop-color="#A9CEFF"/>
<stop offset="0.46389" stop-color="#1C7AF4"/>
<stop offset="0.888961" stop-color="#579EFB"/>
<stop offset="1" stop-color="#032F68"/>
</linearGradient>
<linearGradient id="paint55_linear_1147_2" x1="469.593" y1="369.321" x2="510.011" y2="510.983" gradientUnits="userSpaceOnUse">
<stop stop-color="#002759"/>
<stop offset="0.167412" stop-color="#245BA4"/>
<stop offset="1" stop-color="#032F68"/>
</linearGradient>
<linearGradient id="paint56_linear_1147_2" x1="-2.42254" y1="370.32" x2="-2.42254" y2="408.541" gradientUnits="userSpaceOnUse">
<stop stop-color="#1D467D"/>
<stop offset="1" stop-color="#1052AA"/>
</linearGradient>
<linearGradient id="paint57_linear_1147_2" x1="-21.8399" y1="210.609" x2="-39.9776" y2="296.399" gradientUnits="userSpaceOnUse">
<stop stop-color="#FEC66A"/>
<stop offset="0.294782" stop-color="#FEC66B"/>
<stop offset="0.702079" stop-color="#BE6A03"/>
<stop offset="1" stop-color="#A35200"/>
</linearGradient>
<linearGradient id="paint58_linear_1147_2" x1="-46.893" y1="250.376" x2="-6.47562" y2="392.038" gradientUnits="userSpaceOnUse">
<stop stop-color="#002759"/>
<stop offset="0.167412" stop-color="#245BA4"/>
<stop offset="1" stop-color="#032F68"/>
</linearGradient>
<linearGradient id="paint59_linear_1147_2" x1="9.8453" y1="119.029" x2="559.113" y2="227.88" gradientUnits="userSpaceOnUse">
<stop stop-color="#82B5F9"/>
<stop offset="1" stop-color="#3381E8"/>
</linearGradient>
<linearGradient id="paint60_linear_1147_2" x1="7.21951" y1="96.4593" x2="536.481" y2="200.513" gradientUnits="userSpaceOnUse">
<stop stop-color="#4486D2"/>
<stop offset="1" stop-color="#105CB3"/>
</linearGradient>
<linearGradient id="paint61_linear_1147_2" x1="40.7296" y1="129.375" x2="582.683" y2="246.152" gradientUnits="userSpaceOnUse">
<stop stop-color="#AAD2FF"/>
<stop offset="0.424022" stop-color="#77B3FD"/>
<stop offset="0.630888" stop-color="#ADD1FF"/>
<stop offset="1" stop-color="#65A7FF"/>
</linearGradient>
<linearGradient id="paint62_linear_1147_2" x1="244.725" y1="222.724" x2="279.675" y2="271.342" gradientUnits="userSpaceOnUse">
<stop stop-color="#3279D7"/>
<stop offset="0.312212" stop-color="#4595FF"/>
<stop offset="0.442207" stop-color="#054BA7"/>
<stop offset="0.737947" stop-color="#0050B9"/>
<stop offset="1" stop-color="#003F91"/>
</linearGradient>
<linearGradient id="paint63_linear_1147_2" x1="261.508" y1="232.503" x2="250.795" y2="286.122" gradientUnits="userSpaceOnUse">
<stop stop-color="#85B7FA"/>
<stop offset="0.469978" stop-color="#82B6FB"/>
<stop offset="1" stop-color="#3B89F2"/>
</linearGradient>
<linearGradient id="paint64_linear_1147_2" x1="260.646" y1="207.03" x2="262.306" y2="209.73" gradientUnits="userSpaceOnUse">
<stop stop-color="#2C6EC4"/>
<stop offset="1" stop-color="#09499C"/>
</linearGradient>
<clipPath id="clip0_1147_2">
<rect width="600" height="600" fill="white"/>
</clipPath>
</defs>
</svg>
